<svg width="238" height="226" viewBox="0 0 238 226" fill="none" xmlns="http://www.w3.org/2000/svg">
<path d="M129.328 117.012C130.261 117.009 131.195 117.006 132.158 117.003C133.707 117.006 133.707 117.006 135.287 117.009C136.368 117.008 137.45 117.006 138.563 117.004C142.157 117 145.75 117.003 149.344 117.006C151.829 117.005 154.313 117.004 156.798 117.003C162.683 117.001 168.568 117.005 174.453 117.01C179.154 117.014 183.854 117.013 188.555 117.008C195.021 117.003 201.486 117.002 207.952 117.005C210.424 117.006 212.896 117.005 215.368 117.002C218.816 117 222.265 117.004 225.713 117.009C226.746 117.007 227.778 117.005 228.843 117.003C230.243 117.007 230.243 117.007 231.673 117.012C232.489 117.012 233.305 117.013 234.146 117.013C236 117.139 236 117.139 237 118.139C237.098 119.515 237.126 120.897 237.127 122.276C237.131 123.614 237.131 123.614 237.136 124.979C237.133 126.458 237.133 126.458 237.129 127.967C237.132 129.515 237.132 129.515 237.135 131.095C237.139 134.527 237.136 137.958 237.133 141.389C237.134 143.761 237.134 146.134 237.136 148.507C237.137 153.487 237.135 158.467 237.13 163.447C237.125 169.847 237.128 176.247 237.134 182.646C237.138 187.548 237.136 192.45 237.134 197.352C237.133 199.712 237.134 202.072 237.136 204.433C237.139 207.725 237.135 211.018 237.129 214.311C237.131 215.297 237.133 216.283 237.136 217.299C237.133 218.19 237.13 219.082 237.127 220.001C237.126 221.17 237.126 221.17 237.126 222.363C237 224.139 237 224.139 236 225.139C234.545 225.234 233.086 225.261 231.628 225.259C230.684 225.26 229.74 225.262 228.768 225.263C227.724 225.26 226.681 225.256 225.605 225.252C224.513 225.252 223.42 225.253 222.295 225.253C218.664 225.252 215.033 225.244 211.402 225.236C208.893 225.235 206.383 225.233 203.873 225.232C197.931 225.229 191.988 225.221 186.045 225.211C178.618 225.198 171.191 225.193 163.764 225.188C150.509 225.177 137.255 225.16 124 225.139C123.977 211.205 123.959 197.271 123.948 183.337C123.943 176.868 123.936 170.399 123.925 163.93C123.914 157.692 123.908 151.455 123.905 145.217C123.903 142.832 123.9 140.446 123.894 138.06C123.887 134.732 123.886 131.403 123.887 128.075C123.883 127.078 123.879 126.081 123.876 125.054C123.877 124.152 123.878 123.25 123.88 122.321C123.879 121.533 123.878 120.745 123.877 119.933C124.122 116.36 126.263 117.013 129.328 117.012Z" fill="#E71D24"/>
<path d="M2.981 115.14C4.20744 115.142 4.20744 115.142 5.45866 115.143C6.86168 115.141 6.86168 115.141 8.29305 115.139C9.32738 115.142 10.3617 115.146 11.4274 115.15C12.5102 115.15 13.593 115.149 14.7086 115.149C18.3069 115.15 21.9051 115.158 25.5033 115.166C27.9905 115.167 30.4778 115.169 32.965 115.17C38.8546 115.173 44.7443 115.181 50.6339 115.191C57.9947 115.203 65.3554 115.209 72.7162 115.214C85.8523 115.225 98.9884 115.242 112.124 115.263C113.283 117.581 113.25 118.904 113.251 121.483C113.256 122.81 113.256 122.81 113.26 124.164C113.257 125.624 113.257 125.624 113.254 127.113C113.256 128.647 113.256 128.647 113.259 130.212C113.264 133.606 113.261 136.999 113.257 140.392C113.258 142.741 113.259 145.09 113.26 147.439C113.262 152.366 113.259 157.293 113.255 162.22C113.249 168.551 113.252 174.883 113.258 181.214C113.262 186.065 113.261 190.916 113.258 195.767C113.258 198.102 113.258 200.438 113.261 202.773C113.263 206.03 113.259 209.286 113.254 212.543C113.256 213.518 113.258 214.493 113.26 215.498C113.257 216.38 113.254 217.262 113.251 218.17C113.251 219.326 113.251 219.326 113.25 220.506C113.124 222.263 113.124 222.263 112.124 223.263C110.67 223.359 109.21 223.385 107.752 223.383C106.808 223.385 105.865 223.386 104.892 223.388C103.849 223.384 102.805 223.38 101.73 223.377C100.637 223.377 99.5446 223.377 98.4189 223.377C94.7882 223.376 91.1575 223.369 87.5268 223.361C85.0171 223.359 82.5075 223.358 79.9978 223.357C74.0551 223.353 68.1123 223.345 62.1695 223.335C54.7424 223.323 47.3152 223.318 39.8881 223.312C26.6335 223.301 13.379 223.284 0.12442 223.263C0.10109 209.329 0.0835067 195.396 0.072608 181.462C0.0673785 174.993 0.0602796 168.523 0.0489807 162.054C0.0381543 155.817 0.0321438 149.579 0.0295429 143.342C0.0276882 140.956 0.0240668 138.57 0.0186901 136.185C0.0114829 132.856 0.0104291 129.528 0.0108948 126.199C0.00729951 125.202 0.00370422 124.205 0 123.178C0.00137466 122.276 0.00274933 121.375 0.00416565 120.446C0.00324385 119.657 0.00232206 118.869 0.00137234 118.057C0.171895 115.571 0.497432 115.305 2.981 115.14Z" fill="#E71D24"/>
<path d="M2.25211 0.263214C16.7074 0.239884 31.1628 0.222301 45.6181 0.211402C52.3295 0.206239 59.0409 0.199197 65.7523 0.187775C72.2232 0.176948 78.6941 0.170938 85.165 0.168337C87.6399 0.166482 90.1148 0.162861 92.5896 0.157484C96.0428 0.150277 99.4959 0.149223 102.949 0.149689C103.983 0.146093 105.018 0.142498 106.083 0.138794C107.019 0.140169 107.954 0.141543 108.918 0.14296C109.735 0.142038 110.553 0.141116 111.396 0.140166C113.252 0.263214 113.252 0.263214 114.252 1.26321C114.347 2.64197 114.374 4.02558 114.372 5.40764C114.374 6.74755 114.374 6.74755 114.377 8.11453C114.371 9.59591 114.371 9.59591 114.366 11.1072C114.366 12.1412 114.366 13.1753 114.366 14.2406C114.365 17.6766 114.358 21.1124 114.35 24.5484C114.348 26.9235 114.346 29.2986 114.345 31.6737C114.342 37.939 114.332 44.2042 114.321 50.4695C114.311 56.8571 114.306 63.2447 114.301 69.6324C114.29 82.176 114.273 94.7196 114.252 107.263C111.889 108.445 110.478 108.389 107.842 108.39C106.452 108.394 106.452 108.394 105.034 108.399C104.014 108.397 102.994 108.395 101.943 108.393C100.336 108.395 100.336 108.395 98.6961 108.398C95.1405 108.402 91.585 108.399 88.0294 108.396C85.5685 108.397 83.1075 108.398 80.6465 108.399C75.484 108.4 70.3216 108.398 65.1591 108.394C58.5251 108.388 51.8912 108.391 45.2573 108.397C40.1746 108.401 35.0918 108.4 30.0091 108.397C27.5622 108.396 25.1152 108.397 22.6683 108.4C19.256 108.402 15.8438 108.398 12.4315 108.393C10.8988 108.396 10.8988 108.396 9.33505 108.399C8.41101 108.396 7.48697 108.393 6.53493 108.39C5.72727 108.39 4.91961 108.389 4.08748 108.389C2.25211 108.263 2.25211 108.263 1.25211 107.263C1.12928 105.789 1.07428 104.31 1.04678 102.831C1.02685 101.877 1.00692 100.922 0.986389 99.9393C0.969662 98.8873 0.952934 97.8354 0.935699 96.7515C0.914782 95.6557 0.893865 94.5599 0.872314 93.4308C0.805503 89.8125 0.746863 86.1942 0.689606 82.5757C0.658834 80.7343 0.658834 80.7343 0.627441 78.8558C0.353176 62.3011 0.132682 45.7451 0.0758667 29.1881C0.0683921 27.2052 0.0577392 25.2223 0.0438232 23.2394C0.026106 20.4856 0.0217974 17.732 0.021637 14.9781C0.0144968 14.1774 0.00735656 13.3767 0 12.5517C0.00303131 11.8067 0.00606262 11.0618 0.00918579 10.2942C0.00776077 9.65625 0.00633575 9.01828 0.00486755 8.36098C0.341233 5.50699 1.28564 2.96007 2.25211 0.263214Z" fill="#E71D23"/>
<path d="M131.64 0.00941467C133.068 0.00475441 133.068 0.00475441 134.524 0C136.086 0.00296837 136.086 0.00296837 137.68 0.0059967C138.776 0.00463211 139.872 0.00326751 141.002 0.00186157C144.626 -0.00018257 148.251 0.00619969 151.875 0.0138092C153.108 0.0150278 154.342 0.0162463 155.612 0.0175018C174.723 0.0395628 193.83 0.233837 212.938 0.576309C214.102 0.595867 215.266 0.615424 216.466 0.635574C219.737 0.692073 223.007 0.755752 226.277 0.822403C227.742 0.847487 227.742 0.847487 229.236 0.873077C230.119 0.893013 231.001 0.912948 231.91 0.933487C233.066 0.956803 233.066 0.956803 234.245 0.980591C236 1.13881 236 1.13881 237 2.13881C237.098 3.51524 237.126 4.89662 237.127 6.2765C237.131 7.61425 237.131 7.61425 237.136 8.97902C237.133 10.458 237.133 10.458 237.129 11.9669C237.132 13.5156 237.132 13.5156 237.135 15.0955C237.139 18.5266 237.136 21.9577 237.133 25.3888C237.134 27.7615 237.134 30.1343 237.136 32.507C237.137 37.4871 237.135 42.4673 237.13 47.4474C237.125 53.8471 237.128 60.2467 237.134 66.6464C237.138 71.5482 237.136 76.4499 237.134 81.3516C237.133 83.712 237.134 86.0724 237.136 88.4329C237.139 91.7255 237.135 95.0181 237.129 98.3107C237.131 99.2967 237.133 100.283 237.136 101.299C237.133 102.19 237.13 103.082 237.127 104.001C237.126 105.17 237.126 105.17 237.126 106.363C237 108.139 237 108.139 236 109.139C234.56 109.237 233.116 109.265 231.673 109.266C230.272 109.27 230.272 109.27 228.843 109.274C227.293 109.271 227.293 109.271 225.713 109.268C224.632 109.27 223.551 109.272 222.437 109.274C218.843 109.278 215.25 109.275 211.656 109.272C209.171 109.272 206.687 109.273 204.202 109.275C198.317 109.276 192.432 109.273 186.547 109.267C181.846 109.264 177.146 109.265 172.445 109.269C165.979 109.275 159.514 109.276 153.048 109.273C150.576 109.272 148.104 109.273 145.632 109.275C142.184 109.278 138.735 109.274 135.287 109.268C134.254 109.27 133.222 109.272 132.158 109.274C131.224 109.272 130.29 109.269 129.328 109.266C128.511 109.265 127.695 109.265 126.854 109.265C125 109.139 125 109.139 124 108.139C123.905 106.747 123.878 105.351 123.88 103.956C123.878 103.055 123.877 102.153 123.876 101.224C123.879 100.227 123.883 99.2302 123.887 98.203C123.886 97.1592 123.886 96.1155 123.886 95.0401C123.887 91.5716 123.895 88.1033 123.902 84.6349C123.904 82.2374 123.906 79.8398 123.907 77.4423C123.91 71.1179 123.92 64.7934 123.931 58.469C123.942 52.0211 123.946 45.5731 123.951 39.1251C123.962 26.463 123.979 13.8009 124 1.13881C126.871 0.181754 128.66 0.0122771 131.64 0.00941467Z" fill="#E71C23"/>
</svg>
