<?xml version="1.0" encoding="UTF-8"?>
<svg version="1.1" xmlns="http://www.w3.org/2000/svg" width="2084" height="2084">
<path d="M0 0 C687.72 0 1375.44 0 2084 0 C2084 687.72 2084 1375.44 2084 2084 C1396.28 2084 708.56 2084 0 2084 C0 1396.28 0 708.56 0 0 Z " fill="#FEFEFE" transform="translate(0,0)"/>
<path d="M0 0 C1.17477905 -0.00095673 2.34955811 -0.00191345 3.55993652 -0.00289917 C6.03051813 -0.00357486 8.50110157 -0.00176356 10.97167969 0.00244141 C14.68168299 0.00775937 18.39156308 0.00249539 22.1015625 -0.00390625 C58.7268721 -0.0161435 58.7268721 -0.0161435 75.53125 2.3828125 C76.4402002 2.51212158 77.34915039 2.64143066 78.28564453 2.7746582 C95.52251609 5.41376013 112.78574185 11.73510862 126.21875 23.1328125 C127.02054688 23.73738281 127.82234375 24.34195313 128.6484375 24.96484375 C142.68821556 36.8069058 148.61995961 55.41913851 150.21875 73.1328125 C151.59821332 97.51121827 150.02436217 124.83492905 133.1640625 144.03515625 C132.52210938 144.72738281 131.88015625 145.41960937 131.21875 146.1328125 C130.70054687 146.75285156 130.18234375 147.37289063 129.6484375 148.01171875 C121.41100337 157.26330934 108.65209737 162.2102013 97.21875 166.1328125 C96.29578125 166.47441406 95.3728125 166.81601563 94.421875 167.16796875 C90.31157009 168.40607279 86.20799743 169.05841444 81.96875 169.6953125 C81.17339844 169.82099609 80.37804687 169.94667969 79.55859375 170.07617188 C68.88396776 171.7230649 58.48505998 172.27321845 47.6796875 172.23046875 C46.30392509 172.22859918 44.928162 172.22717783 43.55239868 172.22618103 C39.96533304 172.22239822 36.37830914 172.21260512 32.79125977 172.20147705 C29.117356 172.19117085 25.44344536 172.18666386 21.76953125 172.18164062 C14.58591866 172.17097821 7.40234022 172.15395396 0.21875 172.1328125 C0.22097061 173.19547836 0.22319122 174.25814423 0.22547913 175.35301208 C0.24571002 185.34496141 0.26072189 195.3369066 0.27056217 205.32887173 C0.27579113 210.46640816 0.28288901 215.60392813 0.29418945 220.74145508 C0.30501787 225.6951266 0.31102674 230.64878224 0.31362724 235.60246468 C0.31548157 237.49678866 0.31910234 239.39111174 0.32448006 241.285429 C0.33168989 243.92915636 0.33274097 246.57281721 0.33227539 249.21655273 C0.33587067 250.00777023 0.33946594 250.79898773 0.34317017 251.61418152 C0.33280216 257.01876034 0.33280216 257.01876034 -0.78125 258.1328125 C-3.27876162 258.25845909 -5.74716165 258.3214345 -8.24609375 258.3359375 C-8.99460098 258.34163757 -9.74310822 258.34733765 -10.51429749 258.35321045 C-12.10058167 258.36267285 -13.68688562 258.36919934 -15.27319336 258.37304688 C-17.70526239 258.38275864 -20.13648871 258.41377137 -22.56835938 258.4453125 C-24.10676579 258.45184165 -25.64517828 258.45709247 -27.18359375 258.4609375 C-27.91384262 258.4732843 -28.64409149 258.4856311 -29.39646912 258.49835205 C-31.44897461 258.48925781 -31.44897461 258.48925781 -34.78125 258.1328125 C-37.05747337 254.71847745 -37.03063329 253.52740388 -37.02848816 249.51867676 C-37.03268265 248.34822815 -37.03687714 247.17777954 -37.04119873 245.97186279 C-37.03557922 244.68499573 -37.02995972 243.39812866 -37.02416992 242.07226562 C-37.02524317 240.70318511 -37.02718248 239.33410505 -37.02992249 237.96502686 C-37.03478546 234.23098698 -37.02708269 230.49706607 -37.01696944 226.76304054 C-37.0081421 222.81399308 -37.00994776 218.86494888 -37.0103302 214.91589355 C-37.00939115 208.24078415 -37.00070008 201.56571991 -36.98706055 194.890625 C-36.97327968 188.12368878 -36.96603036 181.3567942 -36.96655273 174.58984375 C-36.97115492 110.13297674 -36.97115492 110.13297674 -36.11608887 79.70806885 C-35.84163961 69.84823084 -35.73178236 60.01237219 -35.82421875 50.1484375 C-35.83444565 48.97369873 -35.84467255 47.79895996 -35.85520935 46.58862305 C-35.8998769 41.99126681 -35.95201328 37.39431665 -36.02807617 32.79736328 C-36.08226064 29.3101547 -36.11145948 25.82345856 -36.13671875 22.3359375 C-36.16050095 21.30390198 -36.18428314 20.27186646 -36.20878601 19.20855713 C-36.23177085 12.94553387 -35.50366992 9.23028794 -31.78125 4.1328125 C-23.83408616 -1.98039045 -9.59101614 -0.01777949 0 0 Z " fill="#24201F" transform="translate(558.78125,879.8671875)"/>
<path d="M0 0 C0.99 0.495 0.99 0.495 2 1 C2 85.81 2 170.62 2 258 C-31.3076182 270.49035682 -84.6551601 268.88150069 -117.7734375 255.9140625 C-133.9555539 248.49518452 -143.72597945 235.20546749 -150 219 C-160.36058354 189.69342725 -159.97020102 149.90365611 -148 121 C-140.33913691 105.06016017 -128.20345683 93.73401216 -111.46484375 87.765625 C-93.11765563 82.0666569 -74.97426703 81.71743794 -55.9375 81.875 C-53.79883236 81.88505974 -51.66016009 81.89418024 -49.52148438 81.90234375 C-44.34753914 81.92409732 -39.17382263 81.95845859 -34 82 C-34.01110306 81.05674866 -34.02220612 80.11349731 -34.03364563 79.1416626 C-34.13498319 70.25446492 -34.20994667 61.36738438 -34.25906086 52.47974014 C-34.28516006 47.91040222 -34.3205635 43.34153052 -34.37719727 38.77246094 C-34.43150631 34.3633745 -34.4614181 29.95473658 -34.47438622 25.54534149 C-34.48362818 23.86275927 -34.50167589 22.18020173 -34.52865028 20.49781036 C-34.56492803 18.14155454 -34.56994621 15.78715402 -34.56762695 13.43066406 C-34.58560333 12.73438904 -34.60357971 12.03811401 -34.62210083 11.32073975 C-34.58259236 7.61336954 -34.24971171 6.25360483 -31.60603333 3.56871033 C-28.93327751 1.95983618 -27.53517406 1.48549759 -24.4609375 1.42578125 C-23.21957031 1.38420898 -23.21957031 1.38420898 -21.953125 1.34179688 C-21.10234375 1.33212891 -20.2515625 1.32246094 -19.375 1.3125 C-17.67439044 1.27036778 -15.97385862 1.22493405 -14.2734375 1.17578125 C-13.52497559 1.16458252 -12.77651367 1.15338379 -12.00537109 1.1418457 C-7.84797955 0.84778136 -4.32082394 -0.15712087 0 0 Z " fill="#24201F" transform="translate(1888,877)"/>
<path d="M0 0 C2.27088731 -0.00965924 4.54084893 -0.04075583 6.81152344 -0.07226562 C30.11618325 -0.24107698 52.35866402 5.33915116 69.75292969 21.59960938 C80.46646684 33.29969195 86.26774753 47.8015128 89.17089844 63.24023438 C89.42577026 64.46480347 89.42577026 64.46480347 89.68579102 65.71411133 C91.24817174 73.86872171 91.51070625 81.89447789 91.48657227 90.1652832 C91.48342673 92.40756612 91.5069127 94.64850526 91.53222656 96.890625 C91.64338093 122.14548392 85.41919253 148.76262968 67.23339844 167.20507812 C50.30515799 182.80226741 29.43879992 185.6130961 7.3515625 185.5559082 C4.80652992 185.55274758 2.26266347 185.5763 -0.28222656 185.6015625 C-20.15657131 185.67990903 -38.97782167 181.99995259 -54.82910156 169.24023438 C-55.53550781 168.69625 -56.24191406 168.15226562 -56.96972656 167.59179688 C-74.13071862 153.64030333 -80.26632869 130.30242044 -82.82910156 109.24023438 C-82.98051142 106.44043434 -83.01616348 103.64533766 -83.03222656 100.84179688 C-83.03792664 100.04857025 -83.04362671 99.25534363 -83.04949951 98.43807983 C-83.05890315 96.76228141 -83.06546494 95.08646487 -83.06933594 93.41064453 C-83.0789418 90.90687538 -83.10996707 88.40396424 -83.14160156 85.90039062 C-83.30244554 61.53786898 -77.91860079 37.58092908 -60.82910156 19.24023438 C-43.69206484 3.00057626 -22.58710049 0.05779215 0 0 Z " fill="#24201F" transform="translate(889.8291015625,956.759765625)"/>
<path d="M0 0 C12.04504958 10.2986806 19.01965101 23.97550847 20.9453125 39.71484375 C22.33739384 63.42182264 22.33739384 63.42182264 15.5078125 71.65234375 C14.6621875 72.33296875 13.8165625 73.01359375 12.9453125 73.71484375 C12.35234375 74.21242188 11.759375 74.71 11.1484375 75.22265625 C-6.00101709 86.83806699 -36.92297076 85.7452488 -56.6796875 87.33984375 C-60.3861769 87.64536361 -64.09236288 87.95393995 -67.79818726 88.26742554 C-70.076269 88.45952551 -72.35475211 88.64695444 -74.63369751 88.82852173 C-82.169499 89.45564054 -89.59516495 90.47891899 -97.0546875 91.71484375 C-97.43796485 105.09122332 -95.99274196 117.41665584 -87.08203125 128.07421875 C-74.71591512 140.01391708 -56.84126388 141.91814386 -40.4296875 141.90234375 C-39.53161377 141.90153809 -38.63354004 141.90073242 -37.70825195 141.89990234 C-22.84781298 141.76910894 -8.04001932 140.12262725 6.66796875 138.08203125 C9.80356139 137.73072528 12.79375472 137.57435826 15.9453125 137.71484375 C16.9453125 138.71484375 16.9453125 138.71484375 17.05883789 141.12329102 C17.05360107 142.16541748 17.04836426 143.20754395 17.04296875 144.28125 C17.03974609 145.40595703 17.03652344 146.53066406 17.03320312 147.68945312 C17.02482422 148.87345703 17.01644531 150.05746094 17.0078125 151.27734375 C17.00330078 152.46521484 16.99878906 153.65308594 16.99414062 154.87695312 C16.98230925 157.82296601 16.96582537 160.76888056 16.9453125 163.71484375 C10.09040847 167.42272366 2.85046478 167.76976113 -4.8046875 168.40234375 C-5.5295636 168.46455109 -6.2544397 168.52675842 -7.00128174 168.59085083 C-20.13335793 169.68966301 -33.25544951 170.06381422 -46.4296875 170.15234375 C-47.31313843 170.16437836 -48.19658936 170.17641296 -49.10681152 170.18881226 C-73.89022078 170.47863453 -98.65521084 165.84659771 -117.4296875 148.5234375 C-138.5295937 126.18471105 -137.78011354 92.87319498 -137.19091797 64.25146484 C-136.32600916 41.79793613 -129.30411875 18.76875265 -112.59326172 3.04443359 C-108.18408346 -0.76584644 -103.21077979 -3.59955571 -98.0546875 -6.28515625 C-97.29285156 -6.6925 -96.53101563 -7.09984375 -95.74609375 -7.51953125 C-67.60251097 -20.56290295 -25.12866471 -18.79829777 0 0 Z " fill="#252120" transform="translate(1648.0546875,971.28515625)"/>
<path d="M0 0 C1.83357444 1.83357444 1.11999967 4.39635695 1.12442017 6.8359375 C1.11902725 8.09289429 1.11902725 8.09289429 1.11352539 9.37524414 C1.11367142 10.25321152 1.11381744 11.13117889 1.1139679 12.03575134 C1.11326844 14.95224435 1.10547455 17.86867433 1.09765625 20.78515625 C1.09579218 22.80154892 1.09436823 24.81794204 1.09336853 26.83433533 C1.08954244 32.15265138 1.07971139 37.4709403 1.06866455 42.78924561 C1.05845238 48.21170688 1.05387133 53.63417252 1.04882812 59.05664062 C1.0380892 69.70443903 1.02101169 80.35221726 1 91 C2.09345734 90.72511749 3.18691467 90.45023499 4.31350708 90.16702271 C5.76514875 89.80288432 7.21679919 89.43878095 8.66845703 89.07470703 C9.74647331 88.80355827 9.74647331 88.80355827 10.8462677 88.52693176 C36.73665837 82.03884222 66.86652844 75.97747184 93 84 C93.96808594 84.29003906 94.93617188 84.58007812 95.93359375 84.87890625 C107.62810426 88.75544996 117.33958913 94.78202357 123.53515625 105.70703125 C128.48351112 116.02211502 129.29111345 125.48991026 129.22705078 136.78149414 C129.22648562 138.15226229 129.22680527 139.52303103 129.22793579 140.89379883 C129.22850623 144.58948298 129.21680239 148.28503553 129.20278788 151.98068929 C129.19022861 155.85238926 129.18910594 159.72409273 129.18673706 163.59580994 C129.18053749 170.91601953 129.16414743 178.23616892 129.14403808 185.55635208 C129.1216315 193.8949668 129.11067371 202.23358451 129.10064721 210.57222188 C129.07977974 227.71484933 129.04463359 244.85741828 129 262 C124.33691801 262.02468646 119.67387392 262.04285349 115.01074219 262.05493164 C113.42382139 262.05996588 111.83690523 262.06679369 110.25 262.07543945 C107.97134251 262.08754482 105.69274624 262.09323733 103.4140625 262.09765625 C102.34679428 262.10539818 102.34679428 262.10539818 101.25796509 262.11329651 C96.22774341 262.11387171 96.22774341 262.11387171 94 261 C93.99761165 260.38930349 93.99522329 259.77860699 93.99276257 259.14940453 C93.93340775 244.23151004 93.85772852 229.31376384 93.76428509 214.39604759 C93.71948112 207.1816899 93.68003183 199.96737988 93.65356445 192.75292969 C93.6304587 186.45860384 93.59692282 180.16443082 93.55129844 173.8702265 C93.52753374 170.5430639 93.51025336 167.21618799 93.50238609 163.88892746 C94.66624133 139.42755711 94.66624133 139.42755711 85 118 C75.23878853 110.612624 64.03143126 110.62415515 52.25 110.6875 C51.56869019 110.68899048 50.88738037 110.69048096 50.1854248 110.6920166 C24.46933274 110.07640516 24.46933274 110.07640516 2 120 C1.68470478 122.57582057 1.68470478 122.57582057 1.7215271 125.63137817 C1.71036362 126.82893738 1.69920013 128.02649658 1.68769836 129.26034546 C1.68533318 130.594299 1.68315757 131.9282529 1.68115234 133.26220703 C1.67185808 134.66150495 1.66169016 136.0607973 1.65071106 137.46008301 C1.62334029 141.26561649 1.60824081 145.07111281 1.59528303 148.876719 C1.57968333 152.851277 1.55288311 156.82575876 1.5272522 160.80026245 C1.48040826 168.3296019 1.44369141 175.85895559 1.41057932 183.38836658 C1.37239751 191.9590345 1.3229771 200.52962596 1.27259517 209.1002295 C1.16919181 226.73343699 1.08144263 244.36667646 1 262 C-10.55 262 -22.1 262 -34 262 C-34.11298063 229.45522519 -34.20252023 196.9105257 -34.25532665 164.36560012 C-34.26158035 160.52530861 -34.26805194 156.68501749 -34.2746582 152.84472656 C-34.27596976 152.08017842 -34.27728131 151.31563028 -34.2786326 150.52791402 C-34.3004023 138.1406901 -34.33983237 125.75358193 -34.38576398 113.36642674 C-34.43248523 100.66055521 -34.4602862 87.95474441 -34.47044247 75.2487905 C-34.47731068 67.40546205 -34.49901994 59.56246077 -34.53958233 51.71923301 C-34.56908191 45.70982144 -34.57228514 39.70069264 -34.56553841 33.69120026 C-34.56691813 31.22242209 -34.57691892 28.75363196 -34.59602737 26.28492737 C-34.62078307 22.9227453 -34.61496794 19.56198065 -34.60127258 16.19976807 C-34.61583679 15.21533667 -34.630401 14.23090527 -34.64540654 13.21664262 C-34.57243552 6.62182475 -34.57243552 6.62182475 -31.61964703 3.41427231 C-22.51083473 -1.50331425 -10.10873852 -0.50020225 0 0 Z " fill="#231F1E" transform="translate(1305,876)"/>
<path d="M0 0 C1.04364212 0.00040787 1.04364212 0.00040787 2.10836792 0.00082397 C41.85965764 0.0717021 41.85965764 0.0717021 58 5.1875 C59.27137774 7.73025549 59.129425 9.53558201 59.1328125 12.37890625 C59.13410156 13.40564453 59.13539062 14.43238281 59.13671875 15.49023438 C59.13285156 16.56595703 59.12898438 17.64167969 59.125 18.75 C59.12886719 19.82958984 59.13273437 20.90917969 59.13671875 22.02148438 C59.13542969 23.04693359 59.13414063 24.07238281 59.1328125 25.12890625 C59.13168457 26.07451416 59.13055664 27.02012207 59.12939453 27.99438477 C59 30.1875 59 30.1875 58 31.1875 C55.13399889 31.32015667 52.30462493 31.37716612 49.4375 31.375 C48.10078247 31.3759668 48.10078247 31.3759668 46.73706055 31.37695312 C39.88549431 31.32480941 33.13067087 30.83407004 26.3125 30.1875 C17.76480728 29.39856769 9.2726309 28.94177538 0.6875 28.875 C-0.82299927 28.84889648 -0.82299927 28.84889648 -2.36401367 28.82226562 C-11.46468232 28.82831811 -20.85677632 30.11575987 -28 36.1875 C-31.40648507 40.04818308 -31.4674669 43.81332758 -31.26953125 48.76171875 C-30.78232759 53.14655166 -29.6071247 55.81650985 -26.21875 58.70703125 C-16.41024989 65.72579492 -5.10434942 68.90754982 6.49746704 71.58303833 C52.89384353 82.35540109 52.89384353 82.35540109 64.49609375 100.53125 C71.78995151 114.20993873 73.47218926 130.27239761 69 145.1875 C64.71412622 159.15563116 57.26573867 169.35541627 44.4765625 176.62109375 C17.98128891 189.71333305 -19.26673862 185.96290187 -47.375 180.3125 C-48.12974609 180.16329102 -48.88449219 180.01408203 -49.66210938 179.86035156 C-55.59683977 178.55663047 -61.69288858 176.64345732 -65.9375 172.125 C-69.40496873 165.80196879 -68.9694635 156.76841401 -67.0625 149.9375 C-66 147.1875 -66 147.1875 -65 146.1875 C-57.02787286 146.34413393 -49.05947331 148.1723702 -41.25 149.625 C-7.04423907 156.84429607 -7.04423907 156.84429607 26 149.0546875 C29.80254222 146.2941881 32.04153459 142.72423626 33 138.1875 C33.84643755 128.8766869 33.07221911 122.84237743 27.9375 115.0625 C21.86811151 108.25957261 11.85405118 106.02498243 3.375 103.8125 C1.16771229 103.21318334 -1.03931232 102.61289693 -3.24609375 102.01171875 C-4.3635498 101.71056152 -5.48100586 101.4094043 -6.63232422 101.09912109 C-52.95623593 88.55935842 -52.95623593 88.55935842 -63 73.1875 C-68.77558565 61.22907587 -70.40319694 46.51305818 -66.875 33.5625 C-62.53650538 22.0675166 -55.02694291 12.7395272 -44 7.1875 C-29.42130812 1.04910342 -15.71403312 -0.02310922 0 0 Z " fill="#24201F" transform="translate(1188,956.8125)"/>
<path d="M0 0 C0.9339006 -0.00281982 1.86780121 -0.00563965 2.83000183 -0.00854492 C4.37915031 -0.00550858 4.37915031 -0.00550858 5.95959473 -0.00241089 C7.04078079 -0.00416321 8.12196686 -0.00591553 9.23591614 -0.00772095 C12.82937194 -0.01214194 16.422779 -0.0092006 20.01623535 -0.00582886 C22.50105804 -0.00650183 24.98588066 -0.00747179 27.47070312 -0.00872803 C33.3556191 -0.01039494 39.24051722 -0.00688213 45.12543058 -0.00157726 C49.82618134 0.00217756 54.52691116 0.00084998 59.22766113 -0.00338745 C65.69322825 -0.00916673 72.15877506 -0.01010088 78.62434387 -0.00683212 C81.09642034 -0.00616261 83.56849765 -0.00699213 86.04057312 -0.00931168 C89.48886433 -0.01183674 92.9370897 -0.00799966 96.38537598 -0.00241089 C97.41814163 -0.00443512 98.45090729 -0.00645935 99.51496887 -0.00854492 C100.91581978 -0.00431519 100.91581978 -0.00431519 102.3449707 0 C103.16130226 0.00037703 103.97763382 0.00075405 104.8187027 0.0011425 C106.67248535 0.12698364 106.67248535 0.12698364 107.67248535 1.12698364 C107.770031 2.50341264 107.79880154 3.88479799 107.79946899 5.26467896 C107.80369873 6.60242371 107.80369873 6.60242371 107.80801392 7.9671936 C107.80497757 9.44621155 107.80497757 9.44621155 107.80187988 10.95510864 C107.80450836 12.50373596 107.80450836 12.50373596 107.80718994 14.08364868 C107.81161068 17.51477716 107.80866968 20.94585459 107.80529785 24.37698364 C107.80597083 26.7497051 107.8069408 29.12242649 107.80819702 31.49514771 C107.8096743 36.47529759 107.80751849 41.45542958 107.80285645 46.43557739 C107.79715915 52.83527043 107.80043799 59.23492154 107.80642891 65.63461304 C107.81003372 70.53632933 107.8088963 75.43803561 107.80630112 80.3397522 C107.80563163 82.70018519 107.80646103 85.06061908 107.80878067 87.42105103 C107.81130589 90.71367827 107.80746844 94.00623657 107.80187988 97.29885864 C107.80390411 98.28487061 107.80592834 99.27088257 107.80801392 100.28677368 C107.80519409 101.17860352 107.80237427 102.07043335 107.79946899 102.98928833 C107.79890346 104.15847809 107.79890346 104.15847809 107.79832649 105.35128784 C107.67248535 107.12698364 107.67248535 107.12698364 106.67248535 108.12698364 C105.2176704 108.22259974 103.7582305 108.24886716 102.30027771 108.24723816 C101.35651779 108.24861282 100.41275787 108.24998749 99.44039917 108.25140381 C98.39671173 108.24780853 97.35302429 108.24421326 96.27770996 108.24050903 C95.18516403 108.24065506 94.0926181 108.24080109 92.96696472 108.24095154 C89.33623302 108.24025186 85.7055519 108.23245693 82.0748291 108.22463989 C79.56519092 108.22277591 77.05555237 108.22135191 74.5459137 108.22035217 C68.60313942 108.21691712 62.66038151 108.20902637 56.71761566 108.19900268 C49.2904661 108.18674617 41.8633143 108.18136157 34.43615723 108.17581177 C21.18159062 108.16507175 7.92703914 108.14818447 -5.32751465 108.12698364 C-5.35084513 94.19319092 -5.36842814 80.25940122 -5.37932682 66.32559299 C-5.38455633 59.85630684 -5.39165521 53.38703376 -5.4029541 46.91775513 C-5.41378057 40.68028064 -5.41979097 34.44281877 -5.42239189 28.20533562 C-5.42424658 25.81978087 -5.42786801 23.43422685 -5.43324471 21.04867744 C-5.44045194 17.72002773 -5.44150572 14.39143086 -5.44104004 11.06277466 C-5.44463531 10.06584091 -5.44823059 9.06890717 -5.45193481 8.04176331 C-5.45056015 7.14007416 -5.44918549 6.23838501 -5.44776917 5.30937195 C-5.44869096 4.52123895 -5.44961275 3.73310595 -5.45056248 2.92109013 C-5.20553465 -0.65155334 -3.06448218 0.00141534 0 0 Z " fill="#E71D24" transform="translate(354.3275146484375,1014.8730163574219)"/>
<path d="M0 0 C1.22644557 0.00138269 1.22644557 0.00138269 2.47766781 0.00279331 C3.88068645 0.00073132 3.88068645 0.00073132 5.31204891 -0.00137234 C6.34638561 0.00222294 7.38072231 0.00581821 8.44640255 0.00952244 C9.52919491 0.00937641 10.61198727 0.00923038 11.72759151 0.00907993 C15.32585778 0.0097796 18.92407301 0.0175745 22.52233028 0.02539158 C25.00954822 0.02725557 27.49676652 0.02867956 29.98398495 0.0296793 C35.87363594 0.03311433 41.76326794 0.04100506 47.65291113 0.05102879 C55.01367777 0.06328536 62.37444668 0.06866992 69.73522091 0.0742197 C82.87129802 0.08495968 96.00735986 0.10184693 109.14342403 0.12304783 C110.30228355 2.44076686 110.26914653 3.76349101 110.27040768 6.34303379 C110.27463741 7.67021931 110.27463741 7.67021931 110.2789526 9.02421665 C110.27591625 10.48381557 110.27591625 10.48381557 110.27281857 11.97290134 C110.27544704 13.50711735 110.27544704 13.50711735 110.27812862 15.07232761 C110.28254314 18.46555351 110.27961075 21.85872762 110.27623653 25.25195408 C110.27690964 27.60082605 110.27787971 29.94969795 110.2791357 32.29856968 C110.28061209 37.22566483 110.2784598 42.15274188 110.27379513 47.07983494 C110.26809475 53.4111182 110.27137918 59.74235911 110.27736759 66.07364082 C110.28097212 70.9247428 110.27983517 75.77583464 110.2772398 80.62693691 C110.27657039 82.96225012 110.27739943 85.29756424 110.27971935 87.6328764 C110.28224444 90.88947219 110.27840746 94.14599827 110.27281857 97.40258884 C110.2748428 98.37767902 110.27686703 99.3527692 110.2789526 100.35740757 C110.27613277 101.23937809 110.27331295 102.12134861 110.27040768 103.03004551 C110.26984214 104.18622552 110.26984214 104.18622552 110.26926517 105.36576271 C110.14342403 107.12304783 110.14342403 107.12304783 109.14342403 108.12304783 C107.68860908 108.21866393 106.22916918 108.24493134 104.77121639 108.24330235 C103.82745647 108.24467701 102.88369656 108.24605167 101.91133785 108.24746799 C100.86765041 108.24387272 99.82396297 108.24027744 98.74864864 108.23657322 C97.65610271 108.23671925 96.56355679 108.23686527 95.4379034 108.23701572 C91.80717171 108.23631605 88.17649058 108.22852112 84.54576778 108.22070408 C82.0361296 108.21884009 79.52649106 108.2174161 77.01685238 108.21641636 C71.0740781 108.21298131 65.1313202 108.20509056 59.18855435 108.19506687 C51.76140478 108.18281036 44.33425299 108.17742575 36.90709591 108.17187595 C23.6525293 108.16113594 10.39797782 108.14424865 -2.85657597 108.12304783 C-2.87990645 94.18925511 -2.89748946 80.2554654 -2.90838814 66.32165718 C-2.91361765 59.85237102 -2.92071652 53.38309794 -2.93201542 46.91381931 C-2.94284188 40.67634483 -2.94885229 34.43888296 -2.95145321 28.2013998 C-2.95330789 25.81584506 -2.95692933 23.43029104 -2.96230602 21.04474163 C-2.96951326 17.71609192 -2.97056704 14.38749504 -2.97010136 11.05883884 C-2.97369663 10.0619051 -2.97729191 9.06497135 -2.98099613 8.03782749 C-2.97962147 7.13613834 -2.9782468 6.2344492 -2.97683048 5.30543613 C-2.97775228 4.51730313 -2.97867407 3.72917013 -2.97962379 2.91715431 C-2.80910076 0.43083271 -2.48356424 0.16460258 0 0 Z " fill="#E71D24" transform="translate(228.85657596588135,1014.8769521713257)"/>
<path d="M0 0 C14.45532811 -0.02333012 28.91065331 -0.04091332 43.36599636 -0.05181217 C50.07741868 -0.05697489 56.78882932 -0.06401713 63.50024414 -0.07543945 C69.97113736 -0.08626565 76.44201842 -0.09227626 82.91292 -0.09487724 C85.38778945 -0.09673198 87.8626582 -0.1003535 90.33752251 -0.10573006 C93.79070373 -0.11293693 97.24383401 -0.11399109 100.69702148 -0.11352539 C101.73135818 -0.11712067 102.76569489 -0.12071594 103.83137512 -0.12442017 C104.76672089 -0.1230455 105.70206665 -0.12167084 106.66575623 -0.12025452 C107.4833866 -0.12117631 108.30101698 -0.1220981 109.14342403 -0.12304783 C111 0 111 0 112 1 C112.0953919 2.37876025 112.12188622 3.76236916 112.12025452 5.14442444 C112.12231651 6.48433693 112.12231651 6.48433693 112.12442017 7.85131836 C112.11902725 9.33269287 112.11902725 9.33269287 112.11352539 10.84399414 C112.11367142 11.87801865 112.11381744 12.91204315 112.1139679 13.97740173 C112.11326827 17.41334086 112.10547358 20.84922653 112.09765625 24.28515625 C112.09579225 26.66027293 112.09436826 29.03539 112.09336853 31.4105072 C112.08954197 37.67576144 112.0797105 43.94099267 112.06866455 50.20623779 C112.0584534 56.5938689 112.05387155 62.98150371 112.04882812 69.36914062 C112.03808836 81.91277026 112.02120127 94.45638391 112 107 C109.63680263 108.18159868 108.22566527 108.12575394 105.5901947 108.12698364 C104.19990303 108.13121338 104.19990303 108.13121338 102.78152466 108.13552856 C101.76170502 108.13350433 100.74188538 108.1314801 99.69116211 108.12939453 C98.08379433 108.13202301 98.08379433 108.13202301 96.44395447 108.13470459 C92.88840127 108.13911965 89.33289748 108.13618652 85.77734375 108.1328125 C83.31637055 108.13348559 80.85539741 108.13445565 78.39442444 108.13571167 C73.23193734 108.13718813 68.06946752 108.13503554 62.90698242 108.13037109 C56.27302903 108.12467086 49.63911606 108.12795501 43.00516415 108.13394356 C37.92244662 108.137548 32.83973876 108.13641117 27.75702095 108.13381577 C25.31006427 108.13314633 22.86310672 108.1339755 20.41615105 108.13629532 C17.00389131 108.13882026 13.59169811 108.13498363 10.17944336 108.12939453 C8.64667755 108.13243088 8.64667755 108.13243088 7.08294678 108.13552856 C6.15890549 108.13270874 5.2348642 108.12988892 4.28282166 108.12698364 C3.47516326 108.12660662 2.66750486 108.12622959 1.83537197 108.12584114 C0 108 0 108 -1 107 C-1.12282089 105.52606636 -1.17782963 104.04641345 -1.20532227 102.56762695 C-1.22525238 101.61342865 -1.2451825 100.65923035 -1.26571655 99.67611694 C-1.28244415 98.62413116 -1.29917175 97.57214539 -1.31640625 96.48828125 C-1.3373233 95.39246735 -1.35824036 94.29665344 -1.37979126 93.16763306 C-1.44660246 89.54933241 -1.50524273 85.93096375 -1.5625 82.3125 C-1.59327133 80.47112961 -1.59327133 80.47112961 -1.62466431 78.59255981 C-1.89892964 62.03785029 -2.11942403 45.48190979 -2.17623901 28.92489624 C-2.18371357 26.94199175 -2.19436652 24.95909655 -2.20828247 22.97622681 C-2.22599974 20.22234401 -2.23030828 17.46877641 -2.23046875 14.71484375 C-2.23760895 13.91414459 -2.24474915 13.11344543 -2.25210571 12.28848267 C-2.2490744 11.54351532 -2.24604309 10.79854797 -2.24291992 10.03100586 C-2.24434494 9.39303574 -2.24576996 8.75506561 -2.24723816 8.09776306 C-1.91087261 5.2437731 -0.96646787 2.69685881 0 0 Z " fill="#E71D23" transform="translate(227,899)"/>
<path d="M0 0 C1.42758888 -0.00466026 1.42758888 -0.00466026 2.88401794 -0.00941467 C4.4460067 -0.0064463 4.4460067 -0.0064463 6.03955078 -0.00341797 C7.13586319 -0.00478256 8.2321756 -0.00614716 9.36170959 -0.0075531 C12.98612376 -0.00959724 16.61045728 -0.00321498 20.23486328 0.00439453 C21.4681839 0.0056131 22.70150452 0.00683167 23.97219849 0.00808716 C43.08331257 0.03014812 62.18939045 0.22442216 81.29736328 0.56689453 C82.46176941 0.58645203 83.62617554 0.60600952 84.8258667 0.62615967 C88.09645597 0.68265826 91.36681071 0.74633738 94.63720703 0.81298828 C96.10191185 0.83807213 96.10191185 0.83807213 97.59620667 0.86366272 C98.47848434 0.88359787 99.36076202 0.90353302 100.26977539 0.92407227 C101.42539223 0.94738869 101.42539223 0.94738869 102.60435486 0.97117615 C104.35986328 1.12939453 104.35986328 1.12939453 105.35986328 2.12939453 C105.45740893 3.50582352 105.48617947 4.88720888 105.48684692 6.26708984 C105.49107666 7.60483459 105.49107666 7.60483459 105.49539185 8.96960449 C105.4923555 10.44862244 105.4923555 10.44862244 105.48925781 11.95751953 C105.49188629 13.50614685 105.49188629 13.50614685 105.49456787 15.08605957 C105.49898861 18.51718805 105.49604761 21.94826548 105.49267578 25.37939453 C105.49334876 27.75211599 105.49431873 30.12483738 105.49557495 32.49755859 C105.49705223 37.47770848 105.49489642 42.45784047 105.49023438 47.43798828 C105.48453708 53.83768132 105.48781592 60.23733243 105.49380684 66.63702393 C105.49741165 71.53874022 105.49627423 76.4404465 105.49367905 81.34216309 C105.49300956 83.70259608 105.49383896 86.06302997 105.4961586 88.42346191 C105.49868382 91.71608916 105.49484637 95.00864745 105.48925781 98.30126953 C105.49128204 99.28728149 105.49330627 100.27329346 105.49539185 101.28918457 C105.49257202 102.1810144 105.4897522 103.07284424 105.48684692 103.99169922 C105.48628139 105.16088898 105.48628139 105.16088898 105.48570442 106.35369873 C105.35986328 108.12939453 105.35986328 108.12939453 104.35986328 109.12939453 C102.92005114 109.22713393 101.47547425 109.25571166 100.03234863 109.25637817 C98.63149773 109.26060791 98.63149773 109.26060791 97.2023468 109.2649231 C95.65319832 109.26188675 95.65319832 109.26188675 94.07275391 109.25878906 C92.99156784 109.26054138 91.91038177 109.2622937 90.7964325 109.26409912 C87.20297669 109.26852011 83.60956963 109.26557877 80.01611328 109.26220703 C77.53129059 109.26288 75.04646797 109.26384996 72.56164551 109.2651062 C66.67672953 109.26677311 60.79183141 109.26326031 54.90691805 109.25795543 C50.2061673 109.25420061 45.50543747 109.2555282 40.8046875 109.25976562 C34.33912038 109.2655449 27.87357357 109.26647906 21.40800476 109.2632103 C18.9359283 109.26254078 16.46385098 109.2633703 13.99177551 109.26568985 C10.5434843 109.26821492 7.09525893 109.26437783 3.64697266 109.25878906 C2.614207 109.26081329 1.58144135 109.26283752 0.51737976 109.2649231 C-0.41652084 109.26210327 -1.35042145 109.25928345 -2.31262207 109.25637817 C-3.12895363 109.25600115 -3.94528519 109.25562412 -4.78635406 109.25523567 C-6.64013672 109.12939453 -6.64013672 109.12939453 -7.64013672 108.12939453 C-7.73556767 106.73795764 -7.76202247 105.34171086 -7.76039124 103.94700623 C-7.7617659 103.04531708 -7.76314056 102.14362793 -7.76455688 101.21461487 C-7.76096161 100.21768112 -7.75736633 99.22074738 -7.75366211 98.19360352 C-7.75380814 97.14982544 -7.75395416 96.10604736 -7.75410461 95.03063965 C-7.75340498 91.5622351 -7.74561025 88.09388351 -7.73779297 84.62548828 C-7.73592897 82.22795135 -7.73450498 79.83041404 -7.73350525 77.43287659 C-7.72967866 71.10843869 -7.71984718 64.78402359 -7.70880127 58.45959473 C-7.69859017 52.01164051 -7.69400828 45.56368262 -7.68896484 39.11572266 C-7.67822503 26.45360353 -7.66133791 13.79150024 -7.64013672 1.12939453 C-4.76897198 0.17233962 -2.98016537 0.00286244 0 0 Z " fill="#E71C23" transform="translate(356.64013671875,897.87060546875)"/>
<path d="M0 0 C9.11114657 -0.14009817 18.22191258 -0.24616961 27.33390808 -0.31087303 C31.5667472 -0.34195511 35.79884016 -0.38399302 40.03125 -0.45263672 C44.12919249 -0.51867033 48.22642545 -0.55387897 52.32485962 -0.56926346 C53.87475736 -0.58020167 55.42462399 -0.6015531 56.97421265 -0.63438034 C72.71042127 -0.95395193 87.19021202 2.92071437 99 14 C103.66220065 19.39126906 106.19083639 25.17256113 108 32 C108.2784375 32.92039062 108.556875 33.84078125 108.84375 34.7890625 C113.42336903 51.53859506 112.47688009 72.82205474 105.27734375 88.796875 C97.84286624 101.61964355 85.64274371 106.81889051 72 111 C68.01030658 111.97216171 64.29239339 112.12113617 60.19018555 112.11352539 C59.52621262 112.11367142 58.86223969 112.11381744 58.17814636 112.1139679 C55.99763651 112.11327483 53.81721356 112.10551099 51.63671875 112.09765625 C50.1192886 112.09578992 48.60185785 112.09436703 47.08442688 112.09336853 C43.10108765 112.08956032 39.1177852 112.07974459 35.13446045 112.06866455 C31.06555682 112.05841389 26.99664721 112.05386309 22.92773438 112.04882812 C14.95180609 112.03812074 6.97590763 112.02106478 -1 112 C-1.09305249 88.84084453 -0.83488961 65.6899171 -0.53643799 42.53308105 C-0.47478077 37.71803422 -0.41522776 32.90296133 -0.35546875 28.08789062 C-0.23897479 18.72523462 -0.1202497 9.36260847 0 0 Z " fill="#FDFDFD" transform="translate(560,911)"/>
<path d="M0 0 C1.94712891 -0.01836914 1.94712891 -0.01836914 3.93359375 -0.03710938 C16.41932026 -0.0562007 25.57415969 2.35760748 36 9.375 C50.36048287 24.06185748 51.12487285 45.77159032 51.01074219 65.15185547 C50.99996785 67.31896687 51.01075021 69.48525619 51.0234375 71.65234375 C51.04321187 88.79356926 49.36512163 106.76232547 37.71875 120.32421875 C27.66186249 129.84234443 15.16645925 131.71156073 1.8125 131.625 C0.72259766 131.64498047 -0.36730469 131.66496094 -1.49023438 131.68554688 C-13.48565503 131.67841947 -24.25775963 128.33817888 -33.25 120.1875 C-45.71284888 105.954496 -46.59303342 89.31243413 -46.51074219 71.29223633 C-46.50008992 68.52337395 -46.51064726 65.75516993 -46.5234375 62.98632812 C-46.55739871 23.26724584 -46.55739871 23.26724584 -32.859375 9.31640625 C-22.47319003 0.84264755 -12.85507918 0.00630769 0 0 Z " fill="#FEFEFE" transform="translate(892.25,983.8125)"/>
<path d="M0 0 C2.38223484 0.03192609 4.76381 0.0410636 7.14624023 0.046875 C8.66512864 0.05601862 10.1840103 0.06638578 11.70288086 0.078125 C12.41310898 0.08237488 13.1233371 0.08662476 13.85508728 0.09100342 C18.77690027 0.16386316 18.77690027 0.16386316 19.89428711 1.28125 C22.76699504 12.08124797 22.18566823 23.42422695 22.15991211 34.49609375 C22.16126309 36.55855861 22.1632072 38.62102316 22.16571045 40.68348694 C22.1686473 44.99613491 22.16441455 49.30869966 22.1550293 53.62133789 C22.14370057 59.08724414 22.15016158 64.55295246 22.16217422 70.01885128 C22.16948752 74.27884849 22.16706099 78.53880076 22.16191864 82.79879951 C22.16060475 84.81056302 22.16214835 86.8223309 22.16687775 88.83408928 C22.19181628 102.43338814 21.41473859 115.76608355 19.89428711 129.28125 C13.27812 129.40172893 6.66266999 129.49602354 0.0456543 129.5559082 C-2.20056049 129.58089839 -4.44669525 129.61490235 -6.69262695 129.65844727 C-30.56978014 130.10946016 -30.56978014 130.10946016 -40.10571289 124.28125 C-40.96358398 123.78407471 -41.82145508 123.28689941 -42.70532227 122.7746582 C-52.11449551 117.11602988 -56.54981743 110.12922756 -59.56958008 99.56958008 C-61.98638018 89.2541578 -62.42762156 78.94876821 -62.36645508 68.4128418 C-62.35570435 66.21700562 -62.36643947 64.02198402 -62.37915039 61.82617188 C-62.39589188 45.69077291 -61.34424282 25.89858106 -50.10571289 13.28125 C-36.95870006 0.67258468 -17.23238582 -0.23343691 0 0 Z " fill="#FDFDFD" transform="translate(1833.105712890625,984.71875)"/>
<path d="M0 0 C1.17755859 0.0009668 1.17755859 0.0009668 2.37890625 0.00195312 C6.36923544 0.03223387 9.95849011 0.37561695 13.875 1.1875 C13.89786548 34.2929403 13.91549777 67.39837856 13.92606533 100.50382495 C13.92731611 104.40806755 13.92861042 108.31231015 13.92993164 112.21655273 C13.93019395 112.99385026 13.93045626 113.77114779 13.93072652 114.5719998 C13.93508339 127.1745867 13.94297103 139.77716907 13.9521528 152.37975328 C13.96148887 165.30144963 13.96705551 178.22314358 13.96908849 191.14484316 C13.97046382 199.12470042 13.97481492 207.10454485 13.98291647 215.08439816 C13.98880401 221.19294044 13.98945908 227.30147157 13.98810768 233.41001701 C13.98838422 235.92357462 13.99039202 238.43713268 13.99420547 240.95068741 C13.99913562 244.36602329 13.99800081 247.781303 13.99525452 251.19664001 C13.99816736 252.20537373 14.0010802 253.21410745 14.00408131 254.25340885 C14.00209026 255.16108275 14.00009921 256.06875665 13.99804783 257.00393581 C13.99861741 258.18809366 13.99861741 258.18809366 13.9991985 259.39617389 C13.875 261.1875 13.875 261.1875 12.875 262.1875 C10.28140678 262.27601529 7.71460309 262.30275945 5.12109375 262.28515625 C4.34564713 262.2837413 3.5702005 262.28232635 2.77125549 262.28086853 C0.28496506 262.27525345 -2.2012366 262.26269846 -4.6875 262.25 C-6.36913933 262.24498694 -8.05078006 262.2404237 -9.73242188 262.23632812 C-13.86331566 262.22527913 -17.99414276 262.20800445 -22.125 262.1875 C-22.26183523 229.7871625 -22.36803701 197.38690815 -22.43139198 164.98634772 C-22.43889634 161.16236611 -22.44666226 157.33838506 -22.45458984 153.5144043 C-22.45616371 152.75310908 -22.45773757 151.99181387 -22.45935912 151.2074491 C-22.48547682 138.8758387 -22.53278958 126.54439588 -22.58791678 114.21288494 C-22.64399892 101.56238243 -22.67734694 88.91196777 -22.68953097 76.26134604 C-22.69776941 68.45327252 -22.72380161 60.64567265 -22.7724988 52.83774491 C-22.80792354 46.8535349 -22.81173803 40.86973351 -22.80364609 34.88540649 C-22.80530056 32.4283271 -22.81728596 29.97123023 -22.84023285 27.51425743 C-22.86998303 24.16535801 -22.86294723 20.81850311 -22.8465271 17.46955872 C-22.86400415 16.49193111 -22.8814812 15.5143035 -22.89948785 14.50705081 C-22.81441011 8.11020127 -22.81441011 8.11020127 -20.8571713 5.49064767 C-14.7054984 0.14672948 -7.71682546 -0.12157519 0 0 Z " fill="#24201F" transform="translate(1705.125,875.8125)"/>
<path d="M0 0 C2.79314903 -0.00444966 5.58480652 -0.04113151 8.37768555 -0.07861328 C10.1647896 -0.08446966 11.95190102 -0.08844692 13.73901367 -0.09033203 C14.98269966 -0.11188858 14.98269966 -0.11188858 16.25151062 -0.13388062 C21.95850242 -0.08840065 21.95850242 -0.08840065 25.08984375 2.25805664 C27.76411639 6.0722121 27.23080471 9.90906157 26.57104492 14.37060547 C25.0836248 19.03602566 22.99261145 23.80027518 19.57104492 27.37060547 C16.44143073 28.4138102 14.14974088 28.52531497 10.86401367 28.58154297 C-11.8353015 27.90609804 -11.8353015 27.90609804 -31.42895508 37.37060547 C-31.53768691 39.230527 -31.57584293 41.09459424 -31.58717346 42.95765686 C-31.59696228 44.17066971 -31.6067511 45.38368256 -31.61683655 46.63345337 C-31.62274149 47.9899288 -31.62855189 49.34640465 -31.63427734 50.70288086 C-31.64385057 52.12173247 -31.65386031 53.5405812 -31.66427612 54.95942688 C-31.69139153 58.82286241 -31.71236503 62.68631025 -31.73227811 66.54978871 C-31.75409688 70.58305576 -31.7815056 74.61628461 -31.80833435 78.64952087 C-31.85831697 86.29223245 -31.90323506 93.93496517 -31.94635671 101.5777182 C-31.9956816 110.27651278 -32.05061728 118.97526905 -32.10603631 127.67402661 C-32.21994182 145.57285068 -32.3267621 163.47171088 -32.42895508 181.37060547 C-39.00833259 183.0620755 -44.7504684 183.7060592 -51.55395508 183.68310547 C-52.99834961 183.70727539 -52.99834961 183.70727539 -54.47192383 183.73193359 C-55.40907227 183.73257812 -56.3462207 183.73322266 -57.31176758 183.73388672 C-58.1511084 183.73686768 -58.99044922 183.73984863 -59.85522461 183.74291992 C-63.11353267 183.27157485 -65.52447828 181.88131866 -68.42895508 180.37060547 C-68.52266451 161.83717365 -68.59306406 143.30379035 -68.63620377 124.77017021 C-68.65677245 116.16343103 -68.68478323 107.55683961 -68.73071289 98.95019531 C-68.77075602 91.44299244 -68.7964292 83.93589665 -68.80530906 76.42858994 C-68.81049445 72.4586047 -68.82256097 68.48892563 -68.85187531 64.51903915 C-68.8793218 60.77122071 -68.88734215 57.02383028 -68.8813858 53.27592087 C-68.88298588 51.26752975 -68.9043539 49.25918368 -68.92663574 47.25091553 C-68.87317072 35.28268295 -67.03752479 23.24884122 -58.42895508 14.37060547 C-57.90430664 13.81888672 -57.3796582 13.26716797 -56.83911133 12.69873047 C-42.70899254 -0.73319422 -18.21216857 -0.00325537 0 0 Z " fill="#252120" transform="translate(786.428955078125,956.62939453125)"/>
<path d="M0 0 C9.9 0 19.8 0 30 0 C30 58.74 30 117.48 30 178 C18.45 178 6.9 178 -5 178 C-6.87593796 176.12406204 -6.14279467 172.91996313 -6.15390015 170.42156982 C-6.1582824 169.72595577 -6.16266465 169.03034173 -6.1671797 168.31364846 C-6.18061408 165.96528125 -6.18675693 163.61695159 -6.19287109 161.26855469 C-6.20076848 159.59181039 -6.2090372 157.9150678 -6.21765137 156.23832703 C-6.24391587 150.71619297 -6.25918445 145.19405115 -6.2734375 139.671875 C-6.27879556 137.77348068 -6.28417306 135.87508641 -6.28956985 133.9766922 C-6.31120601 126.08114658 -6.32994347 118.18560304 -6.34119225 110.29003525 C-6.35743493 98.9622382 -6.39061197 87.63478403 -6.44759309 76.30711627 C-6.48626094 68.34954657 -6.50582125 60.39206868 -6.51111281 52.43440747 C-6.51477092 47.678312 -6.52684046 42.92258185 -6.55921555 38.16658783 C-6.5892404 33.69151977 -6.59562813 29.21703909 -6.58383179 24.74189186 C-6.58361057 23.09916052 -6.59195509 21.45640238 -6.60948563 19.81376457 C-6.63212226 17.57058808 -6.62391084 15.3295514 -6.60800171 13.08636475 C-6.61131186 11.83125973 -6.614622 10.57615471 -6.61803246 9.2830162 C-5.83602496 5.1289572 -4.18505878 3.67421584 -1 1 C-0.67 0.67 -0.34 0.34 0 0 Z " fill="#24201F" transform="translate(1465,960)"/>
<path d="M0 0 C1.54300781 -0.02416992 1.54300781 -0.02416992 3.1171875 -0.04882812 C12.80163288 -0.05498871 22.3508236 2.10196554 29.66015625 8.84375 C35.92093397 15.61215834 37.27502486 22.07850699 37.5 31 C37.54616455 32.10577393 37.54616455 32.10577393 37.59326172 33.23388672 C37.59414982 37.14951184 37.18328878 39.07338559 34.78125 42.20703125 C28.96230601 46.61210262 22.54593878 47.21295327 15.5 48.25 C14.34322754 48.42112305 13.18645508 48.59224609 11.99462891 48.76855469 C1.48631606 50.24326108 -9.04962698 51.21240271 -19.625 52.0625 C-20.42413818 52.12734589 -21.22327637 52.19219177 -22.04663086 52.25900269 C-30.03532191 52.89846367 -37.97895216 53.49604801 -46 53.3125 C-46.80746691 38.50893996 -43.82608564 22.15937942 -33.75390625 10.7734375 C-23.70158641 1.45003799 -13.27508514 -0.04158861 0 0 Z " fill="#FDFDFD" transform="translate(1595,983.6875)"/>
<path d="M0 0 C0.79205338 -0.0049649 1.58410675 -0.00992981 2.40016174 -0.01504517 C5.02744406 -0.02968175 7.65466598 -0.03647166 10.28198242 -0.04199219 C12.1056061 -0.04774291 13.92922976 -0.05350065 15.75285339 -0.05926514 C19.58035565 -0.06977973 23.40783688 -0.07561923 27.23535156 -0.07910156 C32.13818995 -0.08458379 37.04075026 -0.10860405 41.94350147 -0.13707352 C45.71218169 -0.15570522 49.48079505 -0.16090581 53.24951744 -0.16243744 C55.05681565 -0.16546387 56.86411269 -0.17349209 58.67136574 -0.18662262 C61.20169785 -0.2036925 63.73135229 -0.20180058 66.26171875 -0.1953125 C67.00736084 -0.20452728 67.75300293 -0.21374207 68.52124023 -0.22323608 C72.99128542 -0.18736233 75.72088902 0.50944077 79.32495117 3.16113281 C79.92307617 3.55300781 80.52120117 3.94488281 81.13745117 4.34863281 C83.13518002 7.3977979 82.82710707 10.68675686 82.32495117 14.16113281 C81.11799877 16.93712333 80.20600373 18.5494223 77.72093201 20.27479553 C74.26351688 21.5537857 70.87805643 21.46436036 67.23925781 21.4675293 C66.02147896 21.48001457 66.02147896 21.48001457 64.77909851 21.49275208 C62.09771926 21.51683054 59.41658328 21.52562079 56.73510742 21.53222656 C54.86950101 21.54119335 53.00389533 21.55031521 51.13829041 21.55958557 C47.22856905 21.57607142 43.31893331 21.58377516 39.40917969 21.58666992 C34.40080219 21.59205844 29.39322943 21.62975942 24.38507938 21.67541409 C20.53231366 21.70516142 16.67974246 21.71239294 12.82687187 21.71339607 C10.98047633 21.71760171 9.13408038 21.73004982 7.28779793 21.75091362 C4.70460941 21.77778521 2.1232962 21.77301648 -0.45996094 21.76049805 C-1.22116241 21.77533234 -1.98236389 21.79016663 -2.76663208 21.80545044 C-6.77233236 21.75020078 -8.48255263 21.31850266 -11.62599182 18.74867249 C-14.8316966 14.70052337 -15.19450583 12.35570278 -14.67504883 7.16113281 C-10.8197675 0.68771268 -7.06345204 0.01050391 0 0 Z " fill="#231F1E" transform="translate(1025.675048828125,1038.8388671875)"/>
<path d="M0 0 C4.27039333 2.90508108 7.27798509 6.68042509 9.19921875 11.49609375 C10.10663486 21.17127072 9.46625309 27.77704414 3.94921875 35.74609375 C-1.31004501 41.00535751 -5.489611 41.69352027 -12.73828125 41.93359375 C-19.55164101 41.76723783 -24.26054331 40.73600302 -29.3203125 36.10546875 C-34.98196802 29.9053849 -35.30645655 22.93431761 -35.1796875 14.9140625 C-34.48018698 8.60413513 -31.42995074 4.80218692 -26.86328125 0.62109375 C-18.19598677 -5.39294732 -9.02523744 -5.00142671 0 0 Z " fill="#252120" transform="translate(1491.80078125,878.50390625)"/>
</svg>
